<svg width="375" height="812" viewBox="0 0 375 812" fill="none" xmlns="http://www.w3.org/2000/svg">
<rect width="375" height="812" fill="#2873FF"/>
<path d="M136.16 513.6C133.28 513.6 130.793 512.973 128.7 511.72C126.62 510.467 125.013 508.713 123.88 506.46C122.76 504.207 122.2 501.587 122.2 498.6C122.2 495.613 122.76 492.993 123.88 490.74C125.013 488.487 126.62 486.733 128.7 485.48C130.793 484.227 133.28 483.6 136.16 483.6C139.467 483.6 142.24 484.42 144.48 486.06C146.733 487.7 148.32 489.92 149.24 492.72L143.76 494.24C143.227 492.493 142.327 491.14 141.06 490.18C139.793 489.207 138.16 488.72 136.16 488.72C134.333 488.72 132.807 489.127 131.58 489.94C130.367 490.753 129.453 491.9 128.84 493.38C128.227 494.86 127.92 496.6 127.92 498.6C127.92 500.6 128.227 502.34 128.84 503.82C129.453 505.3 130.367 506.447 131.58 507.26C132.807 508.073 134.333 508.48 136.16 508.48C138.16 508.48 139.793 507.993 141.06 507.02C142.327 506.047 143.227 504.693 143.76 502.96L149.24 504.48C148.32 507.28 146.733 509.5 144.48 511.14C142.24 512.78 139.467 513.6 136.16 513.6ZM163.364 513.6C161.19 513.6 159.284 513.113 157.644 512.14C156.004 511.167 154.724 509.827 153.804 508.12C152.897 506.4 152.444 504.427 152.444 502.2C152.444 499.947 152.91 497.967 153.844 496.26C154.777 494.54 156.064 493.2 157.704 492.24C159.344 491.28 161.23 490.8 163.364 490.8C165.537 490.8 167.444 491.287 169.084 492.26C170.737 493.233 172.024 494.58 172.944 496.3C173.864 498.007 174.324 499.973 174.324 502.2C174.324 504.44 173.857 506.42 172.924 508.14C172.004 509.847 170.717 511.187 169.064 512.16C167.424 513.12 165.524 513.6 163.364 513.6ZM163.364 508.52C165.11 508.52 166.41 507.933 167.264 506.76C168.13 505.573 168.564 504.053 168.564 502.2C168.564 500.28 168.124 498.747 167.244 497.6C166.377 496.453 165.084 495.88 163.364 495.88C162.177 495.88 161.204 496.147 160.444 496.68C159.684 497.213 159.117 497.953 158.744 498.9C158.384 499.847 158.204 500.947 158.204 502.2C158.204 504.133 158.637 505.673 159.504 506.82C160.384 507.953 161.67 508.52 163.364 508.52ZM179.122 488.4V483.6H184.562V488.4H179.122ZM179.122 513V491.4H184.562V513H179.122ZM205.278 513V502.8C205.278 502.307 205.251 501.68 205.198 500.92C205.144 500.147 204.978 499.373 204.698 498.6C204.418 497.827 203.958 497.18 203.318 496.66C202.691 496.14 201.798 495.88 200.638 495.88C200.171 495.88 199.671 495.953 199.138 496.1C198.604 496.247 198.104 496.533 197.638 496.96C197.171 497.373 196.784 497.987 196.478 498.8C196.184 499.613 196.038 500.693 196.038 502.04L192.918 500.56C192.918 498.853 193.264 497.253 193.958 495.76C194.651 494.267 195.691 493.06 197.078 492.14C198.478 491.22 200.238 490.76 202.358 490.76C204.051 490.76 205.431 491.047 206.498 491.62C207.564 492.193 208.391 492.92 208.978 493.8C209.578 494.68 210.004 495.6 210.258 496.56C210.511 497.507 210.664 498.373 210.718 499.16C210.771 499.947 210.798 500.52 210.798 500.88V513H205.278ZM190.518 513V491.4H195.358V498.56H196.038V513H190.518ZM217.788 513V491.48C217.788 490.933 217.801 490.313 217.828 489.62C217.854 488.927 217.961 488.227 218.148 487.52C218.348 486.813 218.708 486.173 219.228 485.6C219.894 484.853 220.614 484.347 221.388 484.08C222.174 483.8 222.934 483.653 223.668 483.64C224.401 483.613 225.028 483.6 225.548 483.6H228.228V488H225.748C224.894 488 224.261 488.22 223.848 488.66C223.434 489.087 223.228 489.6 223.228 490.2V513H217.788ZM214.388 495.6V491.4H228.228V495.6H214.388ZM240.356 513.6C238.183 513.6 236.276 513.113 234.636 512.14C232.996 511.167 231.716 509.827 230.796 508.12C229.889 506.4 229.436 504.427 229.436 502.2C229.436 499.947 229.903 497.967 230.836 496.26C231.769 494.54 233.056 493.2 234.696 492.24C236.336 491.28 238.223 490.8 240.356 490.8C242.529 490.8 244.436 491.287 246.076 492.26C247.729 493.233 249.016 494.58 249.936 496.3C250.856 498.007 251.316 499.973 251.316 502.2C251.316 504.44 250.849 506.42 249.916 508.14C248.996 509.847 247.709 511.187 246.056 512.16C244.416 513.12 242.516 513.6 240.356 513.6ZM240.356 508.52C242.103 508.52 243.403 507.933 244.256 506.76C245.123 505.573 245.556 504.053 245.556 502.2C245.556 500.28 245.116 498.747 244.236 497.6C243.369 496.453 242.076 495.88 240.356 495.88C239.169 495.88 238.196 496.147 237.436 496.68C236.676 497.213 236.109 497.953 235.736 498.9C235.376 499.847 235.196 500.947 235.196 502.2C235.196 504.133 235.629 505.673 236.496 506.82C237.376 507.953 238.663 508.52 240.356 508.52Z" fill="white"/>
<g filter="url(#filter0_d_849_3348)">
<path d="M126.209 369.07C126.209 327.821 157.907 293.962 198.38 290.339C196 290.117 193.594 290 191.162 290C147.328 290 111.811 325.397 111.811 369.07C111.811 412.743 147.328 448.153 191.162 448.153C193.594 448.153 196 448.036 198.38 447.814C157.92 444.191 126.209 410.332 126.209 369.07Z" fill="url(#paint0_radial_849_3348)"/>
<path opacity="0.8" d="M206.749 400.818C188.494 400.818 173.808 385.504 174.946 367.063C175.953 350.72 189.684 337.661 206.108 337.335C212.438 337.205 218.361 338.925 223.37 341.988C231.53 346.966 242.005 345.911 248.765 339.173C258.024 329.946 256.389 314.45 245.287 307.516C233.688 300.283 219.878 296.217 205.115 296.543C166.198 297.39 134.512 329.19 133.95 367.988C133.361 408.559 166.185 441.624 206.749 441.624C229.908 441.624 250.557 430.832 263.882 414.033L263.372 413.525C250.439 400.648 231.752 395.905 213.941 400.01C211.627 400.531 209.221 400.818 206.749 400.818Z" fill="#EAF7FD"/>
<g opacity="0.9" filter="url(#filter1_d_849_3348)">
<path d="M245.287 307.516C233.688 300.283 219.878 296.217 205.115 296.543C174.868 297.207 149.002 316.561 138.71 343.356C155.697 415.076 213.942 399.997 213.942 399.997C211.627 400.531 209.221 400.805 206.749 400.805C188.494 400.805 173.808 385.491 174.946 367.05C175.953 350.707 189.684 337.648 206.108 337.322C212.438 337.192 218.362 338.912 223.37 341.975C231.53 346.953 242.005 345.898 248.765 339.16C258.037 329.946 256.402 314.437 245.287 307.516Z" fill="#FDFDFD"/>
</g>
</g>
<defs>
<filter id="filter0_d_849_3348" x="43" y="248" width="289" height="295" filterUnits="userSpaceOnUse" color-interpolation-filters="sRGB">
<feFlood flood-opacity="0" result="BackgroundImageFix"/>
<feColorMatrix in="SourceAlpha" type="matrix" values="0 0 0 0 0 0 0 0 0 0 0 0 0 0 0 0 0 0 127 0" result="hardAlpha"/>
<feOffset dy="26"/>
<feGaussianBlur stdDeviation="34"/>
<feComposite in2="hardAlpha" operator="out"/>
<feColorMatrix type="matrix" values="0 0 0 0 0.629167 0 0 0 0 0.701578 0 0 0 0 1 0 0 0 0.2 0"/>
<feBlend mode="normal" in2="BackgroundImageFix" result="effect1_dropShadow_849_3348"/>
<feBlend mode="normal" in="SourceGraphic" in2="effect1_dropShadow_849_3348" result="shape"/>
</filter>
<filter id="filter1_d_849_3348" x="58.71" y="220.524" width="276.081" height="264.794" filterUnits="userSpaceOnUse" color-interpolation-filters="sRGB">
<feFlood flood-opacity="0" result="BackgroundImageFix"/>
<feColorMatrix in="SourceAlpha" type="matrix" values="0 0 0 0 0 0 0 0 0 0 0 0 0 0 0 0 0 0 127 0" result="hardAlpha"/>
<feOffset dy="4"/>
<feGaussianBlur stdDeviation="40"/>
<feComposite in2="hardAlpha" operator="out"/>
<feColorMatrix type="matrix" values="0 0 0 0 0 0 0 0 0 0 0 0 0 0 0 0 0 0 0.12 0"/>
<feBlend mode="normal" in2="BackgroundImageFix" result="effect1_dropShadow_849_3348"/>
<feBlend mode="normal" in="SourceGraphic" in2="effect1_dropShadow_849_3348" result="shape"/>
</filter>
<radialGradient id="paint0_radial_849_3348" cx="0" cy="0" r="1" gradientUnits="userSpaceOnUse" gradientTransform="translate(192.681 288.38) rotate(99.285) scale(157.417 86.1521)">
<stop stop-color="#D4E6FC" stop-opacity="0.75"/>
<stop offset="1" stop-color="white"/>
</radialGradient>
</defs>
</svg>
